# Blender v2.78 (sub 0) OBJ File: ''
# www.blender.org
v 0.000000 0.000000 -0.320000
v 0.000000 2.000000 -0.320000
v 0.304338 0.000000 -0.098885
v 0.304338 2.000000 -0.098885
v 0.188091 0.000000 0.258885
v 0.188091 2.000000 0.258885
v -0.188091 0.000000 0.258885
v -0.188091 2.000000 0.258885
v -0.304338 0.000000 -0.098885
v -0.304338 2.000000 -0.098885
vt 1.0000 0.0000
vt 0.0000 1.0000
vt 0.0000 0.0000
vt 1.0000 0.0000
vt 0.0000 1.0000
vt 0.0000 0.0000
vt 1.0000 0.0000
vt 0.0000 1.0000
vt 0.0000 0.0000
vt 0.9755 0.6545
vt 0.2061 0.0955
vt 0.5000 1.0000
vt 1.0000 0.0000
vt 0.0000 1.0000
vt 0.0000 0.0000
vt 1.0000 0.0000
vt 0.0000 1.0000
vt 0.0000 0.0000
vt 0.7939 0.0955
vt 0.2061 0.0955
vt 0.0245 0.6545
vt 1.0000 1.0000
vt 1.0000 1.0000
vt 1.0000 1.0000
vt 0.0245 0.6545
vt 0.7939 0.0955
vt 1.0000 1.0000
vt 1.0000 1.0000
vt 0.5000 1.0000
vt 0.9755 0.6545
vn 0.5878 0.0000 -0.8090
vn 0.9511 0.0000 0.3090
vn 0.0000 0.0000 1.0000
vn 0.0000 1.0000 0.0000
vn -0.9511 0.0000 0.3090
vn -0.5878 0.0000 -0.8090
vn 0.0000 -1.0000 0.0000
s off
f 2/1/1 3/2/1 1/3/1
f 4/4/2 5/5/2 3/6/2
f 6/7/3 7/8/3 5/9/3
f 2/10/4 8/11/4 4/12/4
f 8/13/5 9/14/5 7/15/5
f 10/16/6 1/17/6 9/18/6
f 5/19/7 7/20/7 9/21/7
f 2/1/1 4/22/1 3/2/1
f 4/4/2 6/23/2 5/5/2
f 6/7/3 8/24/3 7/8/3
f 6/25/4 4/12/4 8/11/4
f 2/10/4 10/26/4 8/11/4
f 8/13/5 10/27/5 9/14/5
f 10/16/6 2/28/6 1/17/6
f 9/21/7 1/29/7 3/30/7
f 3/30/7 5/19/7 9/21/7
