# Blender v2.79 (sub 0) OBJ File: ''
# www.blender.org
v 0.000000 2.000000 0.200000
v 0.000000 0.000000 -0.000000
v 0.200000 2.000000 0.000000
v -0.000000 2.000000 -0.200000
v -0.200000 2.000000 0.000000
v 0.000000 2.250000 0.000000
v 0.036180 2.277639 0.026286
v -0.013819 2.277639 0.042532
v -0.044721 2.277639 0.000000
v -0.013819 2.277639 -0.042532
v 0.036180 2.277639 -0.026286
v 0.013819 2.322361 0.042532
v -0.036180 2.322361 0.026286
v -0.036180 2.322361 -0.026286
v 0.013819 2.322361 -0.042532
v 0.044721 2.322361 0.000000
v 0.000000 2.350000 0.000000
v -0.008123 2.257467 0.025000
v 0.021266 2.257467 0.015451
v 0.013143 2.273713 0.040451
v 0.042532 2.273713 0.000000
v 0.021266 2.257467 -0.015451
v -0.026286 2.257467 0.000000
v -0.034409 2.273713 0.025000
v -0.008123 2.257467 -0.025000
v -0.034409 2.273713 -0.025000
v 0.013143 2.273713 -0.040451
v 0.047553 2.300000 0.015451
v 0.047553 2.300000 -0.015451
v 0.000000 2.300000 0.050000
v 0.029389 2.300000 0.040451
v -0.047553 2.300000 0.015451
v -0.029389 2.300000 0.040451
v -0.029389 2.300000 -0.040451
v -0.047553 2.300000 -0.015451
v 0.029389 2.300000 -0.040451
v 0.000000 2.300000 -0.050000
v 0.034409 2.326287 0.025000
v -0.013143 2.326287 0.040451
v -0.042532 2.326287 0.000000
v -0.013143 2.326287 -0.040451
v 0.034409 2.326287 -0.025000
v 0.008123 2.342533 0.025000
v 0.026286 2.342533 0.000000
v -0.021266 2.342533 0.015451
v -0.021266 2.342533 -0.015451
v 0.008123 2.342533 -0.025000
v 0.000000 1.980000 -0.200000
v 0.000000 2.280000 -0.000000
v 0.200000 1.980000 0.000000
v -0.000000 1.980000 0.200000
v -0.200000 1.980000 -0.000000
v 0.000000 -0.050000 -0.000000
v 0.036180 -0.022361 0.026286
v -0.013819 -0.022361 0.042532
v -0.044721 -0.022361 0.000000
v -0.013819 -0.022361 -0.042532
v 0.036180 -0.022361 -0.026286
v 0.013819 0.022361 0.042532
v -0.036180 0.022361 0.026286
v -0.036180 0.022361 -0.026286
v 0.013819 0.022361 -0.042532
v 0.044721 0.022361 0.000000
v 0.000000 0.050000 0.000000
v -0.008123 -0.042533 0.025000
v 0.021266 -0.042533 0.015451
v 0.013143 -0.026287 0.040451
v 0.042532 -0.026287 0.000000
v 0.021266 -0.042533 -0.015451
v -0.026286 -0.042533 0.000000
v -0.034409 -0.026287 0.025000
v -0.008123 -0.042533 -0.025000
v -0.034409 -0.026287 -0.025000
v 0.013143 -0.026287 -0.040451
v 0.047553 0.000000 0.015451
v 0.047553 0.000000 -0.015451
v 0.000000 0.000000 0.050000
v 0.029389 0.000000 0.040451
v -0.047553 0.000000 0.015451
v -0.029389 0.000000 0.040451
v -0.029389 0.000000 -0.040451
v -0.047553 0.000000 -0.015451
v 0.029389 0.000000 -0.040451
v 0.000000 0.000000 -0.050000
v 0.034409 0.026287 0.025000
v -0.013143 0.026287 0.040451
v -0.042532 0.026287 0.000000
v -0.013143 0.026287 -0.040451
v 0.034409 0.026287 -0.025000
v 0.008123 0.042533 0.025000
v 0.026286 0.042533 0.000000
v -0.021266 0.042533 0.015451
v -0.021266 0.042533 -0.015451
v 0.008123 0.042533 -0.025000
vt 0.000000 0.000000
vt 1.000000 0.000000
vt 1.000000 1.000000
vt 0.000000 0.000000
vt 1.000000 1.000000
vt 0.000000 0.000000
vt 1.000000 1.000000
vt 0.000000 0.000000
vt 1.000000 1.000000
vt 1.000000 0.000000
vt 0.000000 1.000000
vt 0.000000 0.000000
vt 1.000000 0.000000
vt 1.000000 1.000000
vt 0.000000 0.000000
vt 1.000000 1.000000
vt 1.000000 0.000000
vt 1.000000 1.000000
vt 1.000000 0.000000
vt 1.000000 1.000000
vt 1.000000 0.000000
vt 1.000000 1.000000
vt 1.000000 0.000000
vt 1.000000 1.000000
vt 0.000000 0.000000
vt 1.000000 0.000000
vt 1.000000 1.000000
vt 0.000000 0.000000
vt 1.000000 0.000000
vt 1.000000 1.000000
vt 0.000000 0.000000
vt 1.000000 0.000000
vt 1.000000 1.000000
vt 0.000000 0.000000
vt 1.000000 0.000000
vt 1.000000 1.000000
vt 1.000000 0.000000
vt 1.000000 1.000000
vt 1.000000 0.000000
vt 1.000000 1.000000
vt 1.000000 0.000000
vt 1.000000 1.000000
vt 1.000000 0.000000
vt 1.000000 1.000000
vt 1.000000 0.000000
vt 1.000000 1.000000
vt 0.000000 0.000000
vt 1.000000 0.000000
vt 1.000000 1.000000
vt 0.000000 0.000000
vt 1.000000 0.000000
vt 1.000000 1.000000
vt 0.000000 0.000000
vt 1.000000 0.000000
vt 1.000000 1.000000
vt 0.000000 0.000000
vt 1.000000 0.000000
vt 1.000000 1.000000
vt 0.000000 0.000000
vt 1.000000 0.000000
vt 1.000000 1.000000
vt 0.000000 0.000000
vt 1.000000 0.000000
vt 1.000000 1.000000
vt 0.000000 0.000000
vt 1.000000 0.000000
vt 0.000000 0.000000
vt 1.000000 0.000000
vt 0.000000 0.000000
vt 1.000000 0.000000
vt 0.000000 0.000000
vt 1.000000 0.000000
vt 0.000000 0.000000
vt 1.000000 0.000000
vt 0.000000 0.000000
vt 1.000000 0.000000
vt 0.000000 0.000000
vt 1.000000 0.000000
vt 0.000000 0.000000
vt 1.000000 0.000000
vt 0.000000 0.000000
vt 1.000000 0.000000
vt 0.000000 0.000000
vt 1.000000 1.000000
vt 1.000000 1.000000
vt 0.000000 0.000000
vt 0.000000 0.000000
vt 1.000000 1.000000
vt 1.000000 1.000000
vt 0.000000 0.000000
vt 0.000000 0.000000
vt 1.000000 1.000000
vt 1.000000 1.000000
vt 0.000000 0.000000
vt 0.000000 0.000000
vt 1.000000 1.000000
vt 1.000000 1.000000
vt 0.000000 0.000000
vt 0.000000 0.000000
vt 1.000000 1.000000
vt 1.000000 1.000000
vt 0.000000 0.000000
vt 1.000000 0.000000
vt 0.000000 0.000000
vt 1.000000 0.000000
vt 1.000000 0.000000
vt 0.000000 0.000000
vt 1.000000 0.000000
vt 1.000000 0.000000
vt 0.000000 0.000000
vt 1.000000 0.000000
vt 1.000000 0.000000
vt 0.000000 0.000000
vt 1.000000 0.000000
vt 1.000000 0.000000
vt 0.000000 0.000000
vt 1.000000 0.000000
vt 0.000000 0.000000
vt 1.000000 1.000000
vt 1.000000 1.000000
vt 0.000000 0.000000
vt 1.000000 1.000000
vt 1.000000 1.000000
vt 0.000000 0.000000
vt 1.000000 1.000000
vt 1.000000 1.000000
vt 0.000000 0.000000
vt 1.000000 0.000000
vt 0.000000 0.000000
vt 1.000000 0.000000
vt 1.000000 1.000000
vt 1.000000 1.000000
vt 0.000000 0.000000
vt 1.000000 0.000000
vt 1.000000 1.000000
vt 0.000000 0.000000
vt 1.000000 1.000000
vt 0.000000 0.000000
vt 1.000000 1.000000
vt 0.000000 0.000000
vt 1.000000 1.000000
vt 1.000000 0.000000
vt 0.000000 1.000000
vt 0.000000 0.000000
vt 1.000000 0.000000
vt 1.000000 1.000000
vt 0.000000 0.000000
vt 1.000000 1.000000
vt 1.000000 0.000000
vt 1.000000 1.000000
vt 1.000000 0.000000
vt 1.000000 1.000000
vt 1.000000 0.000000
vt 1.000000 1.000000
vt 1.000000 0.000000
vt 1.000000 1.000000
vt 0.000000 0.000000
vt 1.000000 0.000000
vt 1.000000 1.000000
vt 0.000000 0.000000
vt 1.000000 0.000000
vt 1.000000 1.000000
vt 0.000000 0.000000
vt 1.000000 0.000000
vt 1.000000 1.000000
vt 0.000000 0.000000
vt 1.000000 0.000000
vt 1.000000 1.000000
vt 1.000000 0.000000
vt 1.000000 1.000000
vt 1.000000 0.000000
vt 1.000000 1.000000
vt 1.000000 0.000000
vt 1.000000 1.000000
vt 1.000000 0.000000
vt 1.000000 1.000000
vt 1.000000 0.000000
vt 1.000000 1.000000
vt 0.000000 0.000000
vt 1.000000 0.000000
vt 1.000000 1.000000
vt 0.000000 0.000000
vt 1.000000 0.000000
vt 1.000000 1.000000
vt 0.000000 0.000000
vt 1.000000 0.000000
vt 1.000000 1.000000
vt 0.000000 0.000000
vt 1.000000 0.000000
vt 1.000000 1.000000
vt 0.000000 0.000000
vt 1.000000 0.000000
vt 1.000000 1.000000
vt 0.000000 0.000000
vt 1.000000 0.000000
vt 1.000000 1.000000
vt 0.000000 0.000000
vt 1.000000 0.000000
vt 0.000000 0.000000
vt 1.000000 0.000000
vt 0.000000 0.000000
vt 1.000000 0.000000
vt 0.000000 0.000000
vt 1.000000 0.000000
vt 0.000000 0.000000
vt 1.000000 0.000000
vt 0.000000 0.000000
vt 1.000000 0.000000
vt 0.000000 0.000000
vt 1.000000 0.000000
vt 0.000000 0.000000
vt 1.000000 0.000000
vt 0.000000 0.000000
vt 1.000000 0.000000
vt 0.000000 0.000000
vt 1.000000 1.000000
vt 1.000000 1.000000
vt 0.000000 0.000000
vt 0.000000 0.000000
vt 1.000000 1.000000
vt 1.000000 1.000000
vt 0.000000 0.000000
vt 0.000000 0.000000
vt 1.000000 1.000000
vt 1.000000 1.000000
vt 0.000000 0.000000
vt 0.000000 0.000000
vt 1.000000 1.000000
vt 1.000000 1.000000
vt 0.000000 0.000000
vt 0.000000 0.000000
vt 1.000000 1.000000
vt 1.000000 1.000000
vt 0.000000 0.000000
vt 1.000000 0.000000
vt 0.000000 0.000000
vt 1.000000 0.000000
vt 1.000000 0.000000
vt 0.000000 0.000000
vt 1.000000 0.000000
vt 1.000000 0.000000
vt 0.000000 0.000000
vt 1.000000 0.000000
vt 1.000000 0.000000
vt 0.000000 0.000000
vt 1.000000 0.000000
vt 1.000000 0.000000
vt 0.000000 0.000000
vt 1.000000 0.000000
vt 0.000000 0.000000
vt 1.000000 1.000000
vt 1.000000 1.000000
vt 0.000000 0.000000
vt 1.000000 1.000000
vt 1.000000 1.000000
vt 0.000000 0.000000
vt 1.000000 1.000000
vt 1.000000 1.000000
vt 0.000000 0.000000
vt 1.000000 0.000000
vt 0.000000 0.000000
vt 1.000000 0.000000
vt 1.000000 1.000000
vt 1.000000 1.000000
vn 0.7053 -0.0705 0.7053
vn 0.7053 -0.0705 -0.7053
vn -0.7053 -0.0705 -0.7053
vn -0.7053 -0.0705 0.7053
vn 0.0000 1.0000 0.0000
vn 0.1024 -0.9435 0.3151
vn 0.7002 -0.6617 0.2680
vn -0.2680 -0.9435 0.1947
vn -0.2680 -0.9435 -0.1947
vn 0.1024 -0.9435 -0.3151
vn 0.9050 -0.3304 0.2680
vn 0.0247 -0.3304 0.9435
vn -0.8897 -0.3304 0.3151
vn -0.5746 -0.3304 -0.7488
vn 0.5346 -0.3304 -0.7779
vn 0.8026 -0.1256 0.5831
vn -0.3066 -0.1256 0.9435
vn -0.9921 -0.1256 0.0000
vn -0.3066 -0.1256 -0.9435
vn 0.8026 -0.1256 -0.5831
vn 0.4089 0.6617 0.6284
vn -0.4713 0.6617 0.5831
vn -0.7002 0.6617 -0.2680
vn 0.0385 0.6617 -0.7488
vn 0.7240 0.6617 -0.1947
vn 0.2680 0.9435 -0.1947
vn 0.4911 0.7947 -0.3568
vn 0.4089 0.6617 -0.6284
vn -0.1024 0.9435 -0.3151
vn -0.1876 0.7947 -0.5773
vn -0.4713 0.6617 -0.5831
vn -0.3313 0.9435 0.0000
vn -0.6071 0.7947 0.0000
vn -0.7002 0.6617 0.2680
vn -0.1024 0.9435 0.3151
vn -0.1876 0.7947 0.5773
vn 0.0385 0.6617 0.7488
vn 0.2680 0.9435 0.1947
vn 0.4911 0.7947 0.3568
vn 0.7240 0.6617 0.1947
vn 0.8897 0.3304 -0.3151
vn 0.7947 0.1876 -0.5773
vn 0.5746 0.3304 -0.7488
vn -0.0247 0.3304 -0.9435
vn -0.3035 0.1876 -0.9342
vn -0.5346 0.3304 -0.7779
vn -0.9050 0.3304 -0.2680
vn -0.9822 0.1876 0.0000
vn -0.9050 0.3304 0.2680
vn -0.5346 0.3304 0.7779
vn -0.3035 0.1876 0.9342
vn -0.0247 0.3304 0.9435
vn 0.5746 0.3304 0.7488
vn 0.7947 0.1876 0.5773
vn 0.8897 0.3304 0.3151
vn 0.3066 0.1256 -0.9435
vn 0.3035 -0.1876 -0.9342
vn 0.0247 -0.3304 -0.9435
vn -0.8026 0.1256 -0.5831
vn -0.7947 -0.1876 -0.5773
vn -0.8897 -0.3304 -0.3151
vn -0.8026 0.1256 0.5831
vn -0.7947 -0.1876 0.5773
vn -0.5746 -0.3304 0.7488
vn 0.3066 0.1256 0.9435
vn 0.3035 -0.1876 0.9342
vn 0.5346 -0.3304 0.7779
vn 0.9921 0.1256 0.0000
vn 0.9822 -0.1876 0.0000
vn 0.9050 -0.3304 -0.2680
vn 0.4713 -0.6617 -0.5831
vn 0.1876 -0.7947 -0.5774
vn -0.0385 -0.6617 -0.7488
vn -0.4089 -0.6617 -0.6284
vn -0.4911 -0.7947 -0.3568
vn -0.7240 -0.6617 -0.1947
vn -0.7240 -0.6617 0.1947
vn -0.4911 -0.7947 0.3568
vn -0.4089 -0.6617 0.6284
vn 0.7002 -0.6617 -0.2680
vn 0.6071 -0.7947 0.0000
vn 0.3313 -0.9435 0.0000
vn -0.0385 -0.6617 0.7488
vn 0.1876 -0.7947 0.5773
vn 0.4713 -0.6617 0.5831
vn 0.6396 0.4264 -0.6396
vn 0.6396 0.4264 0.6396
vn -0.6396 0.4264 0.6396
vn -0.6396 0.4264 -0.6396
vn -0.0000 -1.0000 0.0000
vn 0.1876 -0.7947 -0.5773
s off
f 1/1/1 2/2/1 3/3/1
f 3/4/2 2/2/2 4/5/2
f 4/6/3 2/2/3 5/7/3
f 5/8/4 2/2/4 1/9/4
f 3/10/5 5/11/5 1/1/5
f 6/12/6 19/13/6 18/14/6
f 7/15/7 19/13/7 21/16/7
f 6/12/8 18/17/8 23/18/8
f 6/12/9 23/19/9 25/20/9
f 6/12/10 25/21/10 22/22/10
f 7/15/11 21/23/11 28/24/11
f 8/25/12 20/26/12 30/27/12
f 9/28/13 24/29/13 32/30/13
f 10/31/14 26/32/14 34/33/14
f 11/34/15 27/35/15 36/36/15
f 7/15/16 28/37/16 31/38/16
f 8/25/17 30/39/17 33/40/17
f 9/28/18 32/41/18 35/42/18
f 10/31/19 34/43/19 37/44/19
f 11/34/20 36/45/20 29/46/20
f 12/47/21 38/48/21 43/49/21
f 13/50/22 39/51/22 45/52/22
f 14/53/23 40/54/23 46/55/23
f 15/56/24 41/57/24 47/58/24
f 16/59/25 42/60/25 44/61/25
f 44/62/26 47/63/26 17/64/26
f 44/62/27 42/60/27 47/58/27
f 42/65/28 15/66/28 47/58/28
f 47/67/29 46/68/29 17/64/29
f 47/67/30 41/57/30 46/55/30
f 41/69/31 14/70/31 46/55/31
f 46/71/32 45/72/32 17/64/32
f 46/71/33 40/54/33 45/52/33
f 40/73/34 13/74/34 45/52/34
f 45/75/35 43/76/35 17/64/35
f 45/75/36 39/51/36 43/49/36
f 39/77/37 12/78/37 43/49/37
f 43/79/38 44/80/38 17/64/38
f 43/79/39 38/48/39 44/61/39
f 38/81/40 16/82/40 44/61/40
f 29/83/41 42/60/41 16/84/41
f 29/83/42 36/45/42 42/85/42
f 36/86/43 15/66/43 42/85/43
f 37/87/44 41/57/44 15/88/44
f 37/87/45 34/43/45 41/89/45
f 34/90/46 14/70/46 41/89/46
f 35/91/47 40/54/47 14/92/47
f 35/91/48 32/41/48 40/93/48
f 32/94/49 13/74/49 40/93/49
f 33/95/50 39/51/50 13/96/50
f 33/95/51 30/39/51 39/97/51
f 30/98/52 12/78/52 39/97/52
f 31/99/53 38/48/53 12/100/53
f 31/99/54 28/37/54 38/101/54
f 28/102/55 16/82/55 38/101/55
f 36/86/56 37/103/56 15/88/56
f 36/86/57 27/35/57 37/44/57
f 27/104/58 10/105/58 37/44/58
f 34/90/59 35/106/59 14/92/59
f 34/90/60 26/32/60 35/42/60
f 26/107/61 9/108/61 35/42/61
f 32/94/62 33/109/62 13/96/62
f 32/94/63 24/29/63 33/40/63
f 24/110/64 8/111/64 33/40/64
f 30/98/65 31/112/65 12/100/65
f 30/98/66 20/26/66 31/38/66
f 20/113/67 7/114/67 31/38/67
f 28/102/68 29/115/68 16/84/68
f 28/102/69 21/23/69 29/46/69
f 21/116/70 11/117/70 29/46/70
f 22/118/71 27/35/71 11/119/71
f 22/118/72 25/21/72 27/120/72
f 25/121/73 10/105/73 27/120/73
f 25/121/74 26/32/74 10/122/74
f 25/121/75 23/19/75 26/123/75
f 23/124/76 9/108/76 26/123/76
f 23/124/77 24/29/77 9/125/77
f 23/124/78 18/17/78 24/126/78
f 18/127/79 8/111/79 24/126/79
f 21/116/80 22/128/80 11/119/80
f 21/116/81 19/13/81 22/22/81
f 19/129/82 6/130/82 22/22/82
f 18/127/83 20/26/83 8/131/83
f 18/127/84 19/13/84 20/132/84
f 19/129/85 7/114/85 20/132/85
f 48/133/86 49/134/86 50/135/86
f 50/136/87 49/134/87 51/137/87
f 51/138/88 49/134/88 52/139/88
f 52/140/89 49/134/89 48/141/89
f 50/142/90 52/143/90 48/133/90
f 53/144/6 66/145/6 65/146/6
f 54/147/7 66/145/7 68/148/7
f 53/144/8 65/149/8 70/150/8
f 53/144/9 70/151/9 72/152/9
f 53/144/10 72/153/10 69/154/10
f 54/147/11 68/155/11 75/156/11
f 55/157/12 67/158/12 77/159/12
f 56/160/13 71/161/13 79/162/13
f 57/163/14 73/164/14 81/165/14
f 58/166/15 74/167/15 83/168/15
f 54/147/16 75/169/16 78/170/16
f 55/157/17 77/171/17 80/172/17
f 56/160/18 79/173/18 82/174/18
f 57/163/19 81/175/19 84/176/19
f 58/166/20 83/177/20 76/178/20
f 59/179/21 85/180/21 90/181/21
f 60/182/22 86/183/22 92/184/22
f 61/185/23 87/186/23 93/187/23
f 62/188/24 88/189/24 94/190/24
f 63/191/25 89/192/25 91/193/25
f 91/194/26 94/195/26 64/196/26
f 91/194/27 89/192/27 94/190/27
f 89/197/28 62/198/28 94/190/28
f 94/199/29 93/200/29 64/196/29
f 94/199/30 88/189/30 93/187/30
f 88/201/31 61/202/31 93/187/31
f 93/203/32 92/204/32 64/196/32
f 93/203/33 87/186/33 92/184/33
f 87/205/34 60/206/34 92/184/34
f 92/207/35 90/208/35 64/196/35
f 92/207/36 86/183/36 90/181/36
f 86/209/37 59/210/37 90/181/37
f 90/211/38 91/212/38 64/196/38
f 90/211/39 85/180/39 91/193/39
f 85/213/40 63/214/40 91/193/40
f 76/215/41 89/192/41 63/216/41
f 76/215/42 83/177/42 89/217/42
f 83/218/43 62/198/43 89/217/43
f 84/219/44 88/189/44 62/220/44
f 84/219/45 81/175/45 88/221/45
f 81/222/46 61/202/46 88/221/46
f 82/223/47 87/186/47 61/224/47
f 82/223/48 79/173/48 87/225/48
f 79/226/49 60/206/49 87/225/49
f 80/227/50 86/183/50 60/228/50
f 80/227/51 77/171/51 86/229/51
f 77/230/52 59/210/52 86/229/52
f 78/231/53 85/180/53 59/232/53
f 78/231/54 75/169/54 85/233/54
f 75/234/55 63/214/55 85/233/55
f 83/218/56 84/235/56 62/220/56
f 83/218/57 74/167/57 84/176/57
f 74/236/58 57/237/58 84/176/58
f 81/222/59 82/238/59 61/224/59
f 81/222/60 73/164/60 82/174/60
f 73/239/61 56/240/61 82/174/61
f 79/226/62 80/241/62 60/228/62
f 79/226/63 71/161/63 80/172/63
f 71/242/64 55/243/64 80/172/64
f 77/230/65 78/244/65 59/232/65
f 77/230/66 67/158/66 78/170/66
f 67/245/67 54/246/67 78/170/67
f 75/234/68 76/247/68 63/216/68
f 75/234/69 68/155/69 76/178/69
f 68/248/70 58/249/70 76/178/70
f 69/250/71 74/167/71 58/251/71
f 69/250/91 72/153/91 74/252/91
f 72/253/73 57/237/73 74/252/73
f 72/253/74 73/164/74 57/254/74
f 72/253/75 70/151/75 73/255/75
f 70/256/76 56/240/76 73/255/76
f 70/256/77 71/161/77 56/257/77
f 70/256/78 65/149/78 71/258/78
f 65/259/79 55/243/79 71/258/79
f 68/248/80 69/260/80 58/251/80
f 68/248/81 66/145/81 69/154/81
f 66/261/82 53/262/82 69/154/82
f 65/259/83 67/158/83 55/263/83
f 65/259/84 66/145/84 67/264/84
f 66/261/85 54/246/85 67/264/85
f 3/10/5 4/5/5 5/11/5
f 50/142/90 51/137/90 52/143/90
